<svg xmlns="http://www.w3.org/2000/svg" width="141.125" height="38.613" viewBox="0 0 141.125 38.613">
    <g id="RGB_FullColor" transform="translate(-163.26 -407.85)">
        <g id="Group_1056" data-name="Group 1056" transform="translate(163.26 408.041)">
            <path id="Path_1128" data-name="Path 1128"
                d="M201.682,435.039V413.73a4.97,4.97,0,0,0-4.97-4.97H174.663a10.824,10.824,0,0,1-11.4,16.393v17.059a4.97,4.97,0,0,0,4.97,4.97h23.783a10.988,10.988,0,0,1-.09-1.372A10.827,10.827,0,0,1,201.682,435.039Zm-11.67,1.9H174.93a1.976,1.976,0,0,1-1.739-2.913l3.856-7.152,3.686-6.837a1.975,1.975,0,0,1,3.476,0l3.686,6.837,3.856,7.152A1.975,1.975,0,0,1,190.013,436.942Z"
                transform="translate(-163.26 -408.76)" fill="#dc8bf7" />
        </g>
        <g id="Group_1057" data-name="Group 1057" transform="translate(208.168 407.85)">
            <path id="Path_1129" data-name="Path 1129"
                d="M405.567,434.76q0,5.532-3.629,8.48t-10.7,2.95a20.544,20.544,0,0,1-8.495-1.622,12.7,12.7,0,0,1-3.124-1.995,3.516,3.516,0,0,1,.151-5.452l.239-.184a3.48,3.48,0,0,1,4.5.2c.189.18.375.342.557.488a8.509,8.509,0,0,0,2.711,1.408,11.783,11.783,0,0,0,3.617.5,9.134,9.134,0,0,0,4.771-1.05,3.5,3.5,0,0,0,1.714-3.2,3.4,3.4,0,0,0-.6-2.047,4.845,4.845,0,0,0-1.794-1.423,23.828,23.828,0,0,0-4.147-1.368q-2.873-.77-5.41-1.555a16.4,16.4,0,0,1-4.388-2.035,9.172,9.172,0,0,1-2.911-3.137,9.6,9.6,0,0,1-1.064-4.759,10.05,10.05,0,0,1,3.535-8.176q3.536-2.939,10.129-2.938,6.836,0,10.808,3.355a3.494,3.494,0,0,1-.147,5.408l-.216.168a3.535,3.535,0,0,1-4.553-.2,7.614,7.614,0,0,0-1.507-1.071,9.406,9.406,0,0,0-4.493-1.01,8.431,8.431,0,0,0-4.241.943,3.179,3.179,0,0,0-1.634,2.965,2.973,2.973,0,0,0,1.7,2.726,24.658,24.658,0,0,0,5.928,1.9q2.339.613,4.627,1.316a14.608,14.608,0,0,1,4.082,1.955,9.3,9.3,0,0,1,2.885,3.271A10.873,10.873,0,0,1,405.567,434.76Z"
                transform="translate(-377.57 -407.85)" />
            <path id="Path_1130" data-name="Path 1130"
                d="M552.235,434.317l-4.271-13.132a.712.712,0,0,0-1.354,0l-4.294,13.134-2.127,6.567-1.609,5.023a3.521,3.521,0,0,1-3.353,2.447h0a3.52,3.52,0,0,1-3.342-4.627L541,416.193a6.755,6.755,0,0,1,6.414-4.633h0a6.755,6.755,0,0,1,6.412,4.629l9.132,27.536a3.522,3.522,0,0,1-3.342,4.631h-.254a3.52,3.52,0,0,1-3.346-2.427l-1.651-5.046Z"
                transform="translate(-499.407 -410.783)" />
            <path id="Path_1131" data-name="Path 1131"
                d="M731.127,434.76q0,5.532-3.629,8.48t-10.7,2.95a20.544,20.544,0,0,1-8.495-1.622,12.7,12.7,0,0,1-3.124-1.995,3.516,3.516,0,0,1,.151-5.452l.239-.184a3.48,3.48,0,0,1,4.5.2c.189.18.375.342.557.488a8.506,8.506,0,0,0,2.711,1.408,11.782,11.782,0,0,0,3.617.5,9.134,9.134,0,0,0,4.771-1.05,3.5,3.5,0,0,0,1.714-3.2,3.4,3.4,0,0,0-.6-2.047,4.845,4.845,0,0,0-1.794-1.423,23.824,23.824,0,0,0-4.147-1.368q-2.873-.77-5.41-1.555a16.4,16.4,0,0,1-4.388-2.035,9.172,9.172,0,0,1-2.911-3.137,9.6,9.6,0,0,1-1.065-4.759,10.049,10.049,0,0,1,3.535-8.176q3.536-2.939,10.129-2.938,6.836,0,10.808,3.355a3.494,3.494,0,0,1-.147,5.408l-.216.168a3.535,3.535,0,0,1-4.553-.2,7.614,7.614,0,0,0-1.507-1.071,9.406,9.406,0,0,0-4.493-1.01,8.43,8.43,0,0,0-4.241.943,3.179,3.179,0,0,0-1.635,2.965,2.973,2.973,0,0,0,1.7,2.726,24.657,24.657,0,0,0,5.928,1.9q2.339.613,4.627,1.316a14.609,14.609,0,0,1,4.082,1.955,9.3,9.3,0,0,1,2.885,3.271A10.848,10.848,0,0,1,731.127,434.76Z"
                transform="translate(-634.91 -407.85)" />
        </g>
    </g>
</svg>